Coordinates
version=1
nRows=32
nColumns=12
inDegrees=yes

Units are S.I. units (second, meters, Newtons, ...)
Angles are in degrees

endheader
time	SC_y	SC_z	SC_x	AC_y	AC_z	AC_x	GH_y	GH_z	GH_yy	EL_x	PS_y
       0.0              -11.42          7.948           55.1          55.57          4.882          7.222         -2.366          76.48          -61.7          118.4          159.9
   0.03031              -11.42          7.949           55.1          55.57          4.882          7.219         -2.389          76.46         -61.69          118.4          159.9
   0.06062              -11.42          7.951           55.1          55.57          4.882          7.216         -2.414          76.45         -61.69          118.3          159.9
   0.09093              -11.42          7.953           55.1          55.57          4.882          7.212          -2.44          76.44         -61.68          118.3          159.9
    0.1212              -11.42          7.954          55.09          55.57          4.882          7.208         -2.468          76.42         -61.67          118.3          159.9
    0.1516              -11.42          7.956          55.09          55.57          4.883          7.204         -2.498          76.41         -61.66          118.3          159.9
    0.1819              -11.42          7.959          55.09          55.57          4.883            7.2          -2.53          76.39         -61.64          118.3          159.9
    0.2122              -11.42          7.961          55.09          55.57          4.883          7.196         -2.564          76.37         -61.63          118.3          159.9
    0.2425              -11.43          7.963          55.09          55.57          4.883          7.191         -2.601          76.35         -61.62          118.2          159.9
    0.2728              -11.43          7.966          55.08          55.57          4.883          7.185          -2.64          76.33         -61.61          118.2          159.9
    0.3031              -11.43          7.969          55.08          55.56          4.884           7.18         -2.682          76.31         -61.59          118.2          159.8
    0.3334              -11.43          7.972          55.08          55.56          4.884          7.174         -2.727          76.28         -61.58          118.2          159.8
    0.3637              -11.43          7.975          55.07          55.56          4.884          7.167         -2.776          76.26         -61.56          118.1          159.8
     0.394              -11.44          7.978          55.07          55.56          4.884           7.16         -2.829          76.23         -61.54          118.1          159.8
    0.4243              -11.44          7.982          55.07          55.56          4.885          7.152         -2.886           76.2         -61.52          118.1          159.8
    0.4547              -11.44          7.986          55.06          55.56          4.885          7.144         -2.948          76.17          -61.5          118.0          159.8
     0.485              -11.44          7.991          55.06          55.55          4.885          7.135         -3.015          76.13         -61.48          118.0          159.8
    0.5153              -11.45          7.996          55.05          55.55          4.886          7.125         -3.088          76.09         -61.45          117.9          159.8
    0.5456              -11.45          8.001          55.05          55.55          4.886          7.114         -3.168          76.05         -61.42          117.9          159.8
    0.5759              -11.45          8.007          55.04          55.55          4.886          7.102         -3.256           76.0         -61.39          117.9          159.8
    0.6062              -11.46          8.013          55.04          55.54          4.887          7.089         -3.352          75.95         -61.36          117.8          159.7
    0.6365              -11.46          8.021          55.03          55.54          4.887          7.075         -3.458           75.9         -61.32          117.7          159.7
    0.6668              -11.47          8.028          55.02          55.54          4.888          7.059         -3.575          75.84         -61.28          117.7          159.7
    0.6971              -11.47          8.037          55.02          55.53          4.889          7.042         -3.704          75.77         -61.24          117.6          159.7
    0.7275              -11.48          8.047          55.01          55.53          4.889          7.022         -3.848          75.69         -61.19          117.5          159.7
    0.7578              -11.48          8.057           55.0          55.52           4.89          7.001         -4.009          75.61         -61.13          117.4          159.6
    0.7881              -11.49          8.069          54.98          55.52          4.891          6.976         -4.189          75.51         -61.07          117.3          159.6
    0.8184               -11.5          8.083          54.97          55.51          4.892          6.949         -4.392           75.4          -61.0          117.2          159.6
    0.8487              -11.51          8.098          54.96          55.51          4.893          6.918          -4.62          75.28         -60.92          117.1          159.6
     0.879              -11.52          8.116          54.94           55.5          4.894          6.883          -4.88          75.15         -60.83          116.9          159.5
    0.9093              -11.53          8.136          54.92          55.49          4.896          6.843         -5.177          74.99         -60.72          116.7          159.5
    0.9396              -11.54          8.158           54.9          55.48          4.898          6.797         -5.517          74.81         -60.61          116.5          159.4
